{"title":"I.Spit.On.Your.Grave.UNRATED.2010.720p.BRRip.x264.Feel-Free","uid":6130640,"size":2064316302,"categoryP":"video","categoryS":"hd___movies","magnet":"?xt=urn:btih:68ca5b8e2d2ce9220194d95361d75bc17cdbf259&amp;dn=I.Spit.On.Your.Grave.UNRATED.2010.720p.BRRip.x264.Feel-Free&amp;tr=udp%3A%2F%2Ftracker.openbittorrent.com%3A80&amp;tr=udp%3A%2F%2Fopen.demonii.com%3A1337&amp;tr=udp%3A%2F%2Ftracker.coppersurfer.tk%3A6969&amp;tr=udp%3A%2F%2Fexodus.desync.com%3A6969","seeders":0,"leechers":1,"uploader":".BONE.","files":11,"time":1296116493,"description":"Genre:Crime | Thriller\nLanguage:English\nIMDb:http://www.imdb.com/title/tt1242432/\nSource:BluRay 720p x264-DEPRAViTY\nSubtitles:Romana\n\n\nFormat : MPEG-4\nFormat profile : Base Media\nCodec ID : isom\nFile size : 1.92 GiB\nDuration : 1h 48mn\nOverall bit rate : 2 536 Kbps\nMovie name : I.Spit.On.Your.Grave.UNRATED.2010.LIMITED.720p.BRRip.x264.Feel-Free\n\n\nVideo\nFormat settings, CABAC : Yes\nFormat settings, ReFrames : 4 frames\nFormat settings, GOP : M=4, N=32\nCodec ID : avc1\nCodec ID/Info : Advanced Video Coding\nDuration : 1h 48mn\nBit rate mode : Variable\nBit rate : 2 200 Kbps\nWidth : 1 280 pixels\nHeight : 544 pixels\nDisplay aspect ratio : 2.35:1\nFrame rate mode : Constant\nFrame rate : 23.976 fps\nColor space : YUV\nChroma subsampling : 4:2:0\nBit depth : 8 bits\nScan type : Progressive\nBits/(Pixel*Frame) : 0.132\nStream size : 1.62 GiB (85%)\nWriting library : x264\n\nAudio\nID : 2\nFormat : AAC\nFormat/Info : Advanced Audio Codec\nFormat version : Version 4\nFormat profile : LC\nCodec ID : 40\nDuration : 1h 48mn\nBit rate mode : Variable\nBit rate : 384 Kbps\nChannel(s) : 6 channels\nChannel positions : Front: L C R, Side: L R, LFE\nSampling rate : 48.0 KHz\nStream size : 297 MiB (15%)\n\n\n\nPlot:\nA writer who is brutalized during her cabin retreat seeks revenge on her attackers, who left her for dead\n &lt;a href=&quot;\nhttp://rapidhdd.com/images/694290vlcsnap-00001.png&quot; rel=&quot;nofollow&quot; target=&quot;_NEW&quot;&gt;\nhttp://rapidhdd.com/images/694290vlcsnap-00001.png&lt;/a&gt;\n &lt;a href=&quot;\nhttp://www.rapidhdd.com/images/565711vlcsnap-00002.png&quot; rel=&quot;nofollow&quot; target=&quot;_NEW&quot;&gt;\nhttp://www.rapidhdd.com/images/565711vlcsnap-00002.png&lt;/a&gt;\n &lt;a href=&quot;\nhttp://www.rapidhdd.com/images/864775vlcsnap-00005.png&quot; rel=&quot;nofollow&quot; target=&quot;_NEW&quot;&gt;\nhttp://www.rapidhdd.com/images/864775vlcsnap-00005.png&lt;/a&gt;\n &lt;a href=&quot;\nhttp://www.rapidhdd.com/images/458608vlcsnap-00006.png&quot; rel=&quot;nofollow&quot; target=&quot;_NEW&quot;&gt;\nhttp://www.rapidhdd.com/images/458608vlcsnap-00006.png&lt;/a&gt;\n &lt;a href=&quot;\nhttp://www.rapidhdd.com/images/289681vlcsnap-00004.png&quot; rel=&quot;nofollow&quot; target=&quot;_NEW&quot;&gt;\nhttp://www.rapidhdd.com/images/289681vlcsnap-00004.png&lt;/a&gt;\n\n","torrent":{"xt":"urn:btih:68ca5b8e2d2ce9220194d95361d75bc17cdbf259","amp;dn":"I.Spit.On.Your.Grave.UNRATED.2010.720p.BRRip.x264.Feel-Free","amp;tr":["udp%3A%2F%2Ftracker.openbittorrent.com%3A80","udp%3A%2F%2Fopen.demonii.com%3A1337","udp%3A%2F%2Ftracker.coppersurfer.tk%3A6969","udp%3A%2F%2Fexodus.desync.com%3A6969"],"infoHash":"68ca5b8e2d2ce9220194d95361d75bc17cdbf259","infoHashBuffer":{"type":"Buffer","data":[104,202,91,142,45,44,233,34,1,148,217,83,97,215,91,193,124,219,242,89]},"announce":[],"urlList":[]}}